<?xml version="1.0" encoding="UTF-8"?>
<svg xmlns="http://www.w3.org/2000/svg" xmlns:xlink="http://www.w3.org/1999/xlink" width="48px" height="48px" viewBox="0 0 48 48" version="1.1">
<g id="surface1">
<path style="fill-rule:nonzero;fill:rgb(100%,84.313725%,0%);fill-opacity:1;stroke-width:1.99336;stroke-linecap:butt;stroke-linejoin:miter;stroke:rgb(0%,0%,0%);stroke-opacity:1;stroke-miterlimit:4;" d="M 1791.671172 1151.926563 C 1626.632109 1151.926563 1492.696563 1285.910938 1492.696563 1450.998828 C 1492.696563 1616.037891 1626.632109 1749.973438 1791.671172 1749.973438 C 1956.759063 1749.973438 2090.743438 1616.037891 2090.743438 1450.998828 C 2090.743438 1285.910938 1956.759063 1151.926563 1791.671172 1151.926563 Z M 1791.671172 1151.926563 " transform="matrix(0.08,0,0,0.08,-119.3376,-92.076)"/>
<path style=" stroke:none;fill-rule:nonzero;fill:rgb(0%,0%,0%);fill-opacity:1;" d="M 23.996094 0.96875 C 36.710938 0.96875 47.035156 11.289062 47.035156 24.003906 C 47.035156 36.714844 36.710938 47.035156 23.996094 47.035156 C 11.285156 47.035156 0.96875 36.714844 0.96875 24.003906 C 0.96875 11.289062 11.285156 0.96875 23.996094 0.96875 Z M 23.996094 0.96875 "/>
<path style=" stroke:none;fill-rule:nonzero;fill:rgb(100%,100%,100%);fill-opacity:1;" d="M 20.160156 2.503906 L 19.875 3.90625 L 19.265625 3.425781 L 19.425781 4.191406 L 18.039062 3.828125 L 19.117188 4.765625 L 18.390625 5.058594 L 19.136719 5.300781 L 18.128906 6.316406 L 19.484375 5.851562 L 19.375 6.625 L 19.957031 6.105469 L 20.335938 7.488281 L 20.613281 6.085938 L 21.222656 6.566406 L 21.066406 5.800781 L 22.449219 6.164062 L 21.371094 5.222656 L 22.097656 4.929688 L 21.355469 4.683594 L 22.359375 3.667969 L 21.011719 4.132812 L 21.113281 3.359375 L 20.53125 3.882812 Z M 28.0625 2.554688 L 27.726562 3.941406 L 27.132812 3.441406 L 27.257812 4.207031 L 25.890625 3.785156 L 26.921875 4.769531 L 26.191406 5.035156 L 26.929688 5.3125 L 25.875 6.285156 L 27.242188 5.878906 L 27.109375 6.640625 L 27.710938 6.148438 L 28.03125 7.542969 L 28.367188 6.152344 L 28.960938 6.65625 L 28.835938 5.882812 L 30.195312 6.308594 L 29.160156 5.324219 L 29.898438 5.066406 L 29.160156 4.792969 L 30.210938 3.8125 L 28.839844 4.214844 L 28.984375 3.449219 L 28.382812 3.945312 Z M 12.871094 5.605469 L 12.574219 7.003906 L 11.96875 6.511719 L 12.113281 7.285156 L 10.742188 6.898438 L 11.800781 7.855469 L 11.070312 8.136719 L 11.8125 8.394531 L 10.792969 9.398438 L 12.148438 8.953125 L 12.03125 9.726562 L 12.621094 9.210938 L 12.984375 10.597656 L 13.277344 9.199219 L 13.886719 9.6875 L 13.734375 8.914062 L 15.113281 9.296875 L 14.050781 8.347656 L 14.777344 8.066406 L 14.039062 7.808594 L 15.0625 6.808594 L 13.703125 7.246094 L 13.820312 6.476562 L 13.226562 6.992188 Z M 35.289062 5.75 L 34.964844 7.140625 L 34.367188 6.636719 L 34.5 7.414062 L 33.125 6.996094 L 34.167969 7.972656 L 33.433594 8.238281 L 34.171875 8.511719 L 33.125 9.492188 L 34.496094 9.082031 L 34.355469 9.847656 L 34.960938 9.347656 L 35.285156 10.742188 L 35.609375 9.347656 L 36.207031 9.855469 L 36.074219 9.082031 L 37.445312 9.492188 L 36.410156 8.519531 L 37.140625 8.25 L 36.402344 7.976562 L 37.449219 7.003906 L 36.082031 7.410156 L 36.21875 6.640625 L 35.609375 7.148438 Z M 7.339844 11.515625 L 7.042969 12.90625 L 6.4375 12.421875 L 6.585938 13.1875 L 5.214844 12.808594 L 6.269531 13.761719 L 5.542969 14.046875 L 6.285156 14.296875 L 5.265625 15.296875 L 6.621094 14.855469 L 6.507812 15.628906 L 7.101562 15.113281 L 7.460938 16.5 L 7.75 15.105469 L 8.359375 15.585938 L 8.210938 14.816406 L 9.585938 15.203125 L 8.523438 14.246094 L 9.25 13.96875 L 8.511719 13.710938 L 9.527344 12.710938 L 8.171875 13.152344 L 8.292969 12.386719 L 7.699219 12.894531 Z M 40.707031 11.726562 L 40.394531 13.117188 L 39.789062 12.617188 L 39.929688 13.394531 L 38.558594 12.988281 L 39.605469 13.957031 L 38.871094 14.226562 L 39.609375 14.5 L 38.574219 15.484375 L 39.941406 15.058594 L 39.8125 15.828125 L 40.410156 15.324219 L 40.75 16.714844 L 41.0625 15.324219 L 41.660156 15.820312 L 41.523438 15.046875 L 42.894531 15.445312 L 41.847656 14.484375 L 42.585938 14.210938 L 41.84375 13.941406 L 42.878906 12.957031 L 41.515625 13.378906 L 41.644531 12.605469 L 41.042969 13.117188 Z M 4.710938 19.320312 L 4.40625 20.714844 L 3.796875 20.222656 L 3.941406 20.996094 L 2.566406 20.601562 L 3.621094 21.554688 L 2.894531 21.839844 L 3.632812 22.101562 L 2.601562 23.09375 L 3.960938 22.660156 L 3.84375 23.433594 L 4.441406 22.917969 L 4.78125 24.3125 L 5.085938 22.917969 L 5.6875 23.40625 L 5.542969 22.640625 L 6.925781 23.035156 L 5.867188 22.066406 L 6.597656 21.792969 L 5.859375 21.535156 L 6.882812 20.535156 L 5.523438 20.96875 L 5.652344 20.199219 L 5.058594 20.710938 Z M 43.269531 19.585938 L 42.957031 20.972656 L 42.351562 20.480469 L 42.492188 21.246094 L 41.117188 20.84375 L 42.160156 21.820312 L 41.433594 22.085938 L 42.167969 22.355469 L 41.128906 23.339844 L 42.496094 22.917969 L 42.367188 23.683594 L 42.964844 23.183594 L 43.304688 24.570312 L 43.621094 23.183594 L 44.222656 23.679688 L 44.085938 22.90625 L 45.457031 23.3125 L 44.40625 22.34375 L 45.136719 22.070312 L 44.398438 21.804688 L 45.433594 20.8125 L 44.078125 21.242188 L 44.207031 20.472656 L 43.605469 20.972656 Z M 5.582031 27.613281 L 5.269531 29.011719 L 4.667969 28.515625 L 4.808594 29.285156 L 3.429688 28.882812 L 4.480469 29.851562 L 3.75 30.125 L 4.492188 30.386719 L 3.457031 31.382812 L 4.816406 30.953125 L 4.695312 31.71875 L 5.292969 31.21875 L 5.632812 32.609375 L 5.945312 31.210938 L 6.550781 31.707031 L 6.40625 30.933594 L 7.78125 31.335938 L 6.730469 30.367188 L 7.460938 30.09375 L 6.71875 29.832031 L 7.761719 28.839844 L 6.394531 29.269531 L 6.523438 28.5 L 5.925781 29.003906 Z M 42.269531 27.875 L 41.960938 29.273438 L 41.359375 28.785156 L 41.503906 29.550781 L 40.125 29.160156 L 41.183594 30.117188 L 40.457031 30.398438 L 41.191406 30.660156 L 40.160156 31.65625 L 41.523438 31.222656 L 41.398438 31.992188 L 41.996094 31.480469 L 42.34375 32.871094 L 42.644531 31.476562 L 43.25 31.96875 L 43.105469 31.195312 L 44.480469 31.589844 L 43.429688 30.628906 L 44.15625 30.351562 L 43.414062 30.089844 L 44.445312 29.09375 L 43.085938 29.527344 L 43.207031 28.757812 L 42.609375 29.269531 Z M 9.664062 34.636719 L 9.386719 36.03125 L 8.765625 35.550781 L 8.925781 36.320312 L 7.542969 35.949219 L 8.613281 36.894531 L 7.890625 37.183594 L 8.636719 37.429688 L 7.617188 38.441406 L 8.972656 37.992188 L 8.863281 38.753906 L 9.453125 38.238281 L 9.824219 39.625 L 10.101562 38.222656 L 10.714844 38.707031 L 10.558594 37.933594 L 11.941406 38.304688 L 10.871094 37.363281 L 11.589844 37.074219 L 10.847656 36.824219 L 11.859375 35.808594 L 10.507812 36.269531 L 10.617188 35.496094 L 10.035156 36.015625 Z M 38.085938 34.847656 L 37.75 36.226562 L 37.152344 35.726562 L 37.28125 36.496094 L 35.910156 36.074219 L 36.945312 37.0625 L 36.210938 37.320312 L 36.945312 37.597656 L 35.894531 38.574219 L 37.265625 38.167969 L 37.121094 38.933594 L 37.726562 38.441406 L 38.042969 39.832031 L 38.382812 38.445312 L 38.976562 38.949219 L 38.851562 38.175781 L 40.214844 38.597656 L 39.183594 37.621094 L 39.914062 37.355469 L 39.183594 37.078125 L 40.234375 36.105469 L 38.863281 36.507812 L 39.007812 35.742188 L 38.398438 36.238281 Z M 16.226562 39.257812 L 15.90625 40.652344 L 15.308594 40.152344 L 15.441406 40.925781 L 14.070312 40.515625 L 15.113281 41.484375 L 14.386719 41.757812 L 15.121094 42.027344 L 14.082031 43.011719 L 15.449219 42.59375 L 15.3125 43.363281 L 15.917969 42.859375 L 16.25 44.25 L 16.570312 42.859375 L 17.167969 43.359375 L 17.035156 42.585938 L 18.402344 42.992188 L 17.355469 42.023438 L 18.085938 41.75 L 17.351562 41.480469 L 18.390625 40.496094 L 17.03125 40.914062 L 17.160156 40.144531 L 16.5625 40.652344 Z M 31.527344 39.367188 L 31.191406 40.757812 L 30.597656 40.253906 L 30.726562 41.027344 L 29.355469 40.609375 L 30.398438 41.589844 L 29.660156 41.859375 L 30.398438 42.128906 L 29.351562 43.105469 L 30.71875 42.699219 L 30.582031 43.464844 L 31.1875 42.964844 L 31.511719 44.363281 L 31.835938 42.972656 L 32.429688 43.476562 L 32.300781 42.699219 L 33.671875 43.121094 L 32.636719 42.140625 L 33.367188 41.878906 L 32.628906 41.601562 L 33.675781 40.625 L 32.308594 41.03125 L 32.449219 40.265625 L 31.839844 40.765625 Z M 23.855469 40.882812 L 23.53125 42.28125 L 22.933594 41.78125 L 23.070312 42.554688 L 21.695312 42.144531 L 22.742188 43.117188 L 22.015625 43.386719 L 22.753906 43.65625 L 21.710938 44.640625 L 23.078125 44.222656 L 22.949219 44.992188 L 23.546875 44.480469 L 23.882812 45.878906 L 24.199219 44.488281 L 24.800781 44.980469 L 24.660156 44.207031 L 26.03125 44.617188 L 24.984375 43.644531 L 25.714844 43.375 L 24.980469 43.105469 L 26.019531 42.121094 L 24.65625 42.542969 L 24.789062 41.773438 L 24.191406 42.28125 Z M 23.855469 40.882812 "/>
<path style=" stroke:none;fill-rule:nonzero;fill:rgb(0%,0%,100%);fill-opacity:1;" d="M 24 7.480469 L 20.988281 11.089844 C 22.027344 12.550781 22.464844 14.054688 22.464844 14.9375 C 21.359375 13.605469 20.699219 13.113281 19.875 12.285156 L 17.746094 14.5 C 20.703125 15.914062 22.183594 18.734375 22.183594 21.691406 C 22.183594 23.367188 21.511719 27.074219 17.855469 26.917969 C 15.160156 26.605469 12.519531 22.960938 12.292969 19.609375 C 12.066406 16.265625 13.8125 13.324219 16.195312 10.621094 C 11.300781 13.449219 8.164062 18.554688 8.164062 23.339844 C 8.164062 33.144531 15.199219 39.671875 24 39.671875 C 32.800781 39.671875 39.835938 33.144531 39.835938 23.339844 C 39.835938 18.554688 36.699219 13.449219 31.804688 10.621094 C 34.1875 13.324219 35.933594 16.265625 35.707031 19.609375 C 35.480469 22.960938 32.839844 26.605469 30.144531 26.917969 C 26.488281 27.074219 25.816406 23.367188 25.816406 21.691406 C 25.816406 18.734375 27.296875 15.914062 30.253906 14.5 L 28.125 12.285156 C 27.300781 13.113281 26.640625 13.605469 25.535156 14.9375 C 25.535156 14.054688 25.972656 12.550781 27.011719 11.089844 Z M 24 7.480469 "/>
</g>
</svg>
